PathFileType	4	(X/Y/Z)	D:\TRACE\spot_10-12-23\spot_body_motion_2_1-platform.trc
DataRate	CameraRate	NumFrames	NumMarkers	Units	OrigDataRate	OrigDataStartFrame	OrigNumFrames
100.00	100.00	      54	5	mm	100.00	1751	      7000
Frame#	Time	Left_Front			Right_Front			Left_Aft			Right_Aft			Post			
		X1	Y1	Z1	X2	Y2	Z2	X3	Y3	Z3	X4	Y4	Z4	X5	Y5	Z5	

1751	17.500	-774.28839	49.30745	-629.86908	798.58862	53.49688	-622.93011	-691.05847	-24.50349	505.74496	726.17035	-25.41605	591.70801	8.43829	805.85065	-899.98633	
1752	17.510	-775.29999	48.36140	-630.22101	797.19763	52.43802	-623.35010	-692.13770	-23.49853	505.40610	725.32690	-24.40270	591.57532	7.36532	804.20667	-901.53687	
1753	17.520	-776.27185	47.26287	-630.43774	796.24872	51.52835	-623.85529	-693.08569	-22.95890	505.32913	724.19470	-23.45190	591.24457	6.49427	802.76776	-902.94293	
1754	17.530	-777.50665	45.92517	-630.81110	795.09155	50.37903	-624.10040	-694.31104	-22.04494	504.88046	723.00397	-22.46390	591.04871	5.25453	801.02863	-904.59296	
1755	17.540	-778.70184	44.92414	-631.21747	794.01526	49.02181	-624.38000	-695.31317	-21.29153	504.80231	721.99005	-21.64513	590.83636	3.86980	799.30634	-906.19299	
1756	17.550	-779.88611	43.83050	-631.54626	792.95569	47.78341	-624.72693	-696.42084	-20.45391	504.45740	720.46307	-20.78062	590.66571	3.16637	797.64154	-907.75171	
1757	17.560	-780.88336	42.35158	-631.96545	791.65643	46.53941	-625.25531	-697.62317	-19.73713	504.46115	719.54449	-19.75462	590.42908	1.87089	796.00885	-909.33655	
1758	17.570	-782.03882	41.50797	-632.36987	790.47394	45.63700	-625.44623	-698.81531	-18.58974	503.91943	718.38849	-18.62779	590.08093	0.81463	794.47986	-911.23230	
1759	17.580	-783.12146	40.28302	-632.60474	789.58038	44.31350	-625.68695	-699.87634	-17.84968	503.96841	717.65100	-17.33703	589.77277	-0.51503	792.66888	-912.97693	
1760	17.590	-784.37469	38.78912	-633.00928	788.33838	43.11698	-626.11224	-700.99066	-17.16757	503.73871	716.14624	-16.65760	589.54132	-1.46334	790.89160	-914.80121	
1761	17.600	-785.58295	37.56098	-633.52423	787.06305	41.65690	-626.77319	-702.27167	-16.02406	503.14450	714.72900	-15.73919	589.33344	-2.72514	788.94452	-916.38904	
1762	17.610	-786.60864	36.48333	-633.76318	786.00201	40.41284	-626.91492	-703.44202	-15.18500	502.98669	714.01526	-14.46625	589.03467	-3.78607	787.07538	-918.51324	
1763	17.620	-787.72156	35.05607	-634.09326	785.08405	39.15634	-627.18481	-704.56921	-14.15423	502.61441	712.21448	-13.82358	588.83704	-4.80446	785.30127	-920.46313	
1764	17.630	-788.86847	33.59140	-634.54279	783.87543	38.00734	-627.64484	-705.63031	-13.23364	502.44009	711.80103	-12.21157	588.55542	-6.05046	783.48315	-922.29797	
1765	17.640	-790.04211	32.32235	-634.85895	782.68146	36.41884	-628.06891	-706.73572	-12.32132	502.09509	710.66010	-10.97119	588.32312	-6.89539	781.59515	-924.07202	
1766	17.650	-791.13898	31.22933	-635.27783	781.59625	35.21196	-628.36951	-707.81030	-11.38682	501.84293	709.61438	-9.95390	588.05743	-8.24057	779.72906	-926.06714	
1767	17.660	-792.28674	29.82107	-635.71283	780.51031	33.84769	-628.85669	-709.02484	-10.51786	501.58188	708.40741	-8.96062	587.80298	-9.24062	777.67908	-928.09186	
1768	17.670	-793.42682	28.33977	-636.04785	779.30243	32.54053	-629.01099	-710.16418	-9.60706	501.13226	707.16321	-7.92579	587.30920	-10.64843	775.88300	-930.05109	
1769	17.680	-794.46704	26.90222	-636.23663	778.13391	31.29412	-629.42798	-711.27991	-8.84608	501.00644	706.03333	-6.77464	587.06549	-11.60958	773.93024	-931.79108	
1770	17.690	-795.69934	25.64106	-636.57172	777.06482	29.80719	-629.92883	-712.35120	-7.63346	500.63412	704.89282	-5.57726	586.74585	-12.59141	772.00067	-933.48602	
1771	17.700	-796.75446	24.45268	-637.12817	776.07056	28.52150	-630.19440	-713.46393	-6.82517	500.67480	703.85889	-4.51156	586.53296	-13.70186	769.91565	-935.49005	
1772	17.710	-797.81543	22.98063	-637.51898	774.75592	27.00480	-630.62659	-714.61011	-5.98831	500.22729	702.79742	-3.26702	586.29608	-14.95057	768.02985	-937.38257	
1773	17.720	-798.87250	21.30285	-637.73297	773.70612	25.79569	-631.05188	-715.76923	-4.98025	499.56812	701.45251	-2.28022	585.94684	-16.12218	765.76599	-939.15088	
1774	17.730	-800.27094	20.15486	-638.11963	772.64624	24.15619	-631.10809	-716.81226	-3.85088	499.52094	700.44183	-1.03171	585.65527	-17.10320	763.77356	-940.91235	
1775	17.740	-801.09631	18.73282	-638.62305	771.56396	22.81281	-631.64154	-718.02863	-2.81347	499.04837	699.24133	0.13699	585.31061	-18.25250	761.73077	-942.79144	
1776	17.750	-802.30341	17.35084	-638.97906	770.64081	21.58920	-632.11267	-719.12848	-1.92688	498.85019	698.34796	1.43618	585.05670	-19.09973	759.62457	-945.01007	
1777	17.760	-803.29645	15.80794	-639.29401	769.22113	19.87189	-632.46655	-720.25488	-0.96802	498.45874	697.27222	2.52366	584.61566	-20.53756	757.54266	-946.90619	
1778	17.770	-804.40814	14.28594	-639.65948	768.29944	18.71060	-632.75519	-721.28601	0.11013	498.14142	696.01575	3.67222	584.22913	-21.49202	755.41833	-948.96057	
1779	17.780	-805.49646	12.84667	-639.95953	767.25525	17.15863	-633.06439	-722.34808	1.09038	497.88770	694.95715	4.65356	583.97198	-22.51114	753.41235	-950.91193	
1780	17.790	-806.53790	11.79877	-640.34100	766.19489	15.97770	-633.43732	-723.42499	2.03644	497.53314	693.65045	5.83652	583.67505	-23.58268	751.29266	-952.90259	
1781	17.800	-807.70526	10.33487	-640.64679	765.16010	14.41243	-633.82593	-724.43475	2.90499	497.14917	692.47614	6.40118	583.39227	-24.51985	749.41681	-955.10297	
1782	17.810	-808.48712	8.64082	-641.13257	764.11487	12.85100	-634.28119	-725.54559	4.02400	496.98724	691.99066	8.22046	583.03210	-25.70852	747.30621	-957.04340	
1783	17.820	-809.63110	7.25876	-641.35834	762.97119	11.66853	-634.42725	-726.55835	5.07481	496.50076	690.98267	9.33058	582.54724	-26.56017	745.17950	-958.71552	
1784	17.830	-810.47235	5.75880	-641.75293	762.04901	9.98560	-634.77826	-727.56122	5.84580	496.14319	689.32715	9.72760	582.30109	-27.53309	743.04541	-960.74139	
1785	17.840	-811.83820	4.76273	-642.05841	761.15387	8.74932	-635.15063	-728.70996	6.83260	495.71042	688.13660	10.88181	582.01837	-28.67126	740.78668	-962.54315	
1786	17.850	-812.52783	3.11221	-642.49792	760.11975	7.29469	-635.57770	-729.65033	7.80203	495.29660	687.92548	12.65235	581.63086	-29.50502	738.66815	-964.45459	
1787	17.860	-813.44366	1.41688	-642.66711	758.91479	5.88885	-635.94318	-730.37622	8.86586	495.23138	686.87671	14.02615	581.20135	-30.48106	736.60968	-966.06403	
1788	17.870	-814.66766	0.42013	-642.97919	758.37506	4.41112	-636.13232	-731.26544	9.85894	494.74109	685.82971	14.93793	580.87006	-31.61188	734.37610	-968.07568	
1789	17.880	-815.55707	-1.10322	-643.39581	757.27094	3.06279	-636.42944	-732.38031	10.79878	494.42545	684.99408	16.09740	580.52478	-32.52201	732.39996	-969.86139	
1790	17.890	-816.47998	-2.69142	-643.66748	756.12823	1.60564	-636.79010	-733.26147	11.51836	494.01520	683.96173	17.06601	580.11151	-33.14817	730.31006	-971.52655	
1791	17.900	-817.41901	-4.03292	-643.99182	755.33496	0.16733	-637.38861	-734.27692	12.68248	493.69257	683.17712	18.33038	579.89899	-34.20377	728.34100	-973.47308	
1792	17.910	-818.07544	-5.29681	-644.33551	754.50293	-1.12112	-637.46094	-734.82800	13.47447	493.66589	681.91675	18.90155	579.54492	-35.00950	726.22357	-975.36981	
1793	17.920	-818.91058	-6.81858	-644.67090	753.62103	-2.60959	-637.78375	-735.94611	14.62781	492.93863	680.74725	20.12212	579.05383	-35.60038	724.14893	-977.24725	
1794	17.930	-820.19336	-8.04022	-644.79529	752.73285	-3.68207	-638.10535	-736.74567	15.44502	492.67865	680.62823	21.51501	578.61884	-36.76149	721.96558	-979.19965	
1795	17.940	-820.90192	-9.18011	-645.30585	751.97034	-5.35132	-638.38000	-737.54822	16.35787	492.27994	679.83502	22.44750	578.16583	-37.89886	719.88593	-981.12238	
1796	17.950	-821.58789	-10.73559	-645.38593	751.23236	-6.54151	-638.66547	-738.55084	17.44139	491.86929	678.50549	23.31386	577.86829	-38.46458	717.93903	-982.97070	
1797	17.960	-822.28650	-12.16078	-645.70697	750.34906	-7.93872	-638.73950	-739.17645	18.10238	491.76434	677.86261	24.20287	577.57843	-39.20618	715.83521	-984.56201	
1798	17.970	-822.94373	-13.54962	-646.10773	749.74530	-9.12900	-639.24792	-740.08002	19.14290	491.29507	677.29163	25.28329	577.08649	-39.95099	713.95093	-986.42847	
1799	17.980	-823.62732	-15.09623	-646.37091	748.95905	-10.58160	-639.37982	-740.74353	19.87456	491.03964	676.60181	26.49497	576.55139	-40.43763	711.90454	-987.76489	
1800	17.990	-824.39844	-16.36285	-646.62665	748.41083	-11.83127	-639.72150	-741.40796	20.94079	490.68970	675.97260	27.42778	576.07056	-41.11173	709.94342	-989.70923	
1801	18.000	-825.21234	-17.37426	-646.92273	747.49799	-13.21499	-640.08978	-742.09296	21.71396	490.53476	674.93964	28.88705	576.44318	-41.93786	707.97571	-991.10822	
1802	18.010	-825.82007	-18.99349	-647.11963	746.59930	-14.47472	-640.43652	-742.76654	22.71367	490.05405	674.32886	30.04477	576.04089	-42.60071	705.95160	-992.86334	
1803	18.020	-826.53833	-20.09904	-647.41406	746.30121	-15.75162	-640.56787	-743.37061	23.47341	489.60928	673.54858	30.99342	575.68890	-43.36097	704.14703	-994.22125	
1804	18.030	-826.99554	-21.21399	-647.56158	745.57861	-17.09129	-640.83124	-743.92102	24.36770	489.25250	673.07635	32.04368	575.52222	-43.96171	702.20337	-996.00806	
